<?xml version="1.0" standalone="yes"?>
<svg xmlns="http://www.w3.org/2000/svg" width="18" height="16">
<path style="fill:#ffffff; stroke:none;" d="M0 0L0 8L7 10L15 1L0 0z"/>
<path style="fill:#ffa501; stroke:none;" d="M12 4L17 0L12 4z"/>
<path style="fill:#ffffff; stroke:none;" d="M17 0C12.4362 4.78284 9.00083 9.34739 8 16L18 16L17 0z"/>
<path style="fill:#ff9301; stroke:none;" d="M11 3L10 8L11 8L11 3z"/>
<path style="fill:#ff8101; stroke:none;" d="M8 7L8 12L10 7L8 7z"/>
<path style="fill:#ff6c02; stroke:none;" d="M0 8L8 16C8.17273 10.6192 4.95237 8.89779 0 8z"/>
<path style="fill:#ffffff; stroke:none;" d="M0 10L0 16L6 16L0 10z"/>
</svg>
