<?xml version="1.0" standalone="no"?>
<!DOCTYPE svg PUBLIC "-//W3C//DTD SVG 20010904//EN"
 "http://www.w3.org/TR/2001/REC-SVG-20010904/DTD/svg10.dtd">
<svg version="1.0" xmlns="http://www.w3.org/2000/svg"
 width="26.000000pt" height="16.000000pt" viewBox="0 0 26.000000 16.000000"
 preserveAspectRatio="xMidYMid meet">
<metadata>
Created by potrace 1.16, written by Peter Selinger 2001-2019
</metadata>
<g transform="translate(0.000000,16.000000) scale(0.100000,-0.100000)"
fill="#000000" stroke="none">
<path d="M0 80 l0 -80 130 0 130 0 0 80 0 80 -130 0 -130 0 0 -80z m240 6 l0
-65 -115 -3 -115 -3 0 68 0 67 115 0 115 0 0 -64z"/>
<path d="M78 123 c28 -2 76 -2 105 0 28 2 5 3 -53 3 -58 0 -81 -1 -52 -3z"/>
<path d="M47 93 c-4 -3 -7 -17 -7 -30 0 -27 26 -41 43 -24 9 9 8 11 -5 6 -15
-6 -18 -2 -18 20 0 20 4 26 16 21 8 -3 12 -2 9 4 -7 11 -28 13 -38 3z"/>
<path d="M104 88 c-4 -6 0 -16 9 -23 21 -15 22 -29 1 -21 -8 3 -12 2 -9 -4 8
-14 32 -13 41 2 4 6 0 16 -9 23 -21 15 -22 29 -1 21 8 -3 12 -2 9 4 -8 14 -32
13 -41 -2z"/>
<path d="M165 73 c8 -35 22 -50 34 -38 16 16 25 65 12 65 -6 0 -11 -7 -11 -15
0 -8 -4 -15 -10 -15 -5 0 -10 7 -10 15 0 8 -5 15 -11 15 -7 0 -9 -10 -4 -27z"/>
</g>
</svg>
