<?xml version="1.0" standalone="no"?>
<!DOCTYPE svg PUBLIC "-//W3C//DTD SVG 20010904//EN"
 "http://www.w3.org/TR/2001/REC-SVG-20010904/DTD/svg10.dtd">
<svg version="1.0" xmlns="http://www.w3.org/2000/svg"
 width="18.000000pt" height="16.000000pt" viewBox="0 0 18.000000 16.000000"
 preserveAspectRatio="xMidYMid meet">
<metadata>
Created by potrace 1.16, written by Peter Selinger 2001-2019
</metadata>
<g transform="translate(0.000000,16.000000) scale(0.100000,-0.100000)"
fill="#000000" stroke="none">
<path d="M0 80 l0 -80 90 0 90 0 0 80 0 80 -90 0 -90 0 0 -80z m60 58 c0 -9 4
-8 10 2 9 13 10 13 10 0 0 -13 1 -13 10 0 9 13 10 13 10 0 0 -12 2 -13 9 -1
17 26 31 -1 31 -60 l0 -60 -47 3 -48 3 -3 63 c-2 38 1 62 8 62 5 0 10 -6 10
-12z"/>
<path d="M78 113 c23 -5 23 -5 5 -26 l-18 -22 23 19 c29 25 28 36 -5 35 -25
-2 -26 -2 -5 -6z"/>
<path d="M100 45 c-16 -19 -3 -19 16 0 9 8 11 15 6 15 -5 0 -15 -7 -22 -15z"/>
</g>
</svg>
