<?xml version="1.0" standalone="no"?>
<!DOCTYPE svg PUBLIC "-//W3C//DTD SVG 20010904//EN"
 "http://www.w3.org/TR/2001/REC-SVG-20010904/DTD/svg10.dtd">
<svg version="1.0" xmlns="http://www.w3.org/2000/svg"
 width="18.000000pt" height="16.000000pt" viewBox="0 0 18.000000 16.000000"
 preserveAspectRatio="xMidYMid meet">
<metadata>
Created by potrace 1.16, written by Peter Selinger 2001-2019
</metadata>
<g transform="translate(0.000000,16.000000) scale(0.100000,-0.100000)"
fill="#000000" stroke="none">
<path d="M77 144 c-16 -16 -6 -34 19 -34 19 0 25 5 22 17 -3 19 -29 29 -41 17z"/>
<path d="M60 62 c0 -30 2 -32 37 -32 20 0 33 3 28 8 -6 4 -22 18 -37 31 l-28
24 0 -31z"/>
<path d="M68 13 c18 -2 45 -2 60 0 15 2 0 4 -33 4 -33 0 -45 -2 -27 -4z"/>
</g>
</svg>
