<?xml version="1.0" standalone="no"?>
<!DOCTYPE svg PUBLIC "-//W3C//DTD SVG 20010904//EN"
 "http://www.w3.org/TR/2001/REC-SVG-20010904/DTD/svg10.dtd">
<svg version="1.0" xmlns="http://www.w3.org/2000/svg"
 width="18.000000pt" height="16.000000pt" viewBox="0 0 18.000000 16.000000"
 preserveAspectRatio="xMidYMid meet">
<metadata>
Created by potrace 1.16, written by Peter Selinger 2001-2019
</metadata>
<g transform="translate(0.000000,16.000000) scale(0.100000,-0.100000)"
fill="#000000" stroke="none">
<path d="M136 131 c4 -8 11 -28 15 -45 6 -29 7 -29 8 -5 1 14 -6 34 -15 45 -8
10 -12 13 -8 5z"/>
<path d="M62 108 c-16 -16 -15 -43 3 -58 12 -10 15 -9 15 8 0 11 -6 22 -12 25
-10 3 -10 7 1 20 16 20 11 23 -7 5z"/>
<path d="M110 74 c1 -36 2 -38 15 -20 19 25 19 31 0 46 -13 11 -15 7 -15 -26z"/>
<path d="M126 35 c-11 -8 -15 -15 -9 -15 6 0 16 7 23 15 16 19 11 19 -14 0z"/>
</g>
</svg>
