<?xml version="1.0" encoding="UTF-8" standalone="no"?>
<svg
    version="1.1"
    id="Ebene_1"
    x="0px"
    y="0px"
    width="12.9330444px"
    height="16.0087662px"
    viewBox="0 0 12.9330444 16.0087662"
    xml:space="preserve"
    sodipodi:docname="Extension.svg"
    inkscape:version="1.1.2 (0a00cf5339, 2022-02-04)"
    xmlns:inkscape="http://www.inkscape.org/namespaces/inkscape"
    xmlns:sodipodi="http://sodipodi.sourceforge.net/DTD/sodipodi-0.dtd"
    xmlns="http://www.w3.org/2000/svg">
    <defs id="defs2096"/>
    <sodipodi:namedview
        id="namedview2094"
        pagecolor="#ffffff"
        bordercolor="#666666"
        borderopacity="1.0"
        inkscape:pageshadow="2"
        inkscape:pageopacity="0.0"
        inkscape:pagecheckerboard="0"
        showgrid="false"
        inkscape:zoom="40.22796"
        inkscape:cx="1.0316208"
        inkscape:cy="7.9919539"
        inkscape:window-width="1920"
        inkscape:window-height="1056"
        inkscape:window-x="0"
        inkscape:window-y="0"
        inkscape:window-maximized="1"
        inkscape:current-layer="g2089"/>
    <g id="g2091">
        <g id="g2074">
            <path
                fill="#868686"
                d="M11.7025146,1.0859761H1.2305298C0.5509033,1.0859761,0,1.6369405,0,2.3165059v12.461731 c0,0.6795654,0.5509033,1.2305298,1.2305298,1.2305298h10.4719849c0.6796265,0,1.2305298-0.5509644,1.2305298-1.2305298V2.3165059 C12.9330444,1.6369405,12.3821411,1.0859761,11.7025146,1.0859761z M11.9382324,14.6791763             c0,0.1848755-0.1498413,0.3347168-0.3347168,0.3347168H1.3295288c-0.1848145,0-0.3346558-0.1498413-0.3346558-0.3347168V2.415566 c0-0.1848755,0.1498413-0.3347168,0.3346558-0.3347168h10.2739868c0.1848755,0,0.3347168,0.1498413,0.3347168,0.3347168 V14.6791763z"
                id="path2072"/>
        </g>
        <g id="g2089">
            <path
                fill="#545454"
                d="M3.4819798,4.1178379c-0.2749443,0-0.4974258-0.2224815-0.4974258-0.4974258V0.4974258 C2.9845541,0.2224814,3.2070355,0,3.4819798,0s0.4974258,0.2224814,0.4974258,0.4974258v3.1229863 C3.9794056,3.8953564,3.7569242,4.1178379,3.4819798,4.1178379z"
                id="path2076"/>
            <path
                fill="#545454"
                d="M6.4708686,4.1178379c-0.2749443,0-0.4974256-0.2224815-0.4974256-0.4974258V0.4974258 C5.973443,0.2224814,6.1959243,0,6.4708686,0s0.497426,0.2224814,0.497426,0.4974258v3.1229863 C6.9682946,3.8953564,6.7458129,4.1178379,6.4708686,4.1178379z"
                id="path2078"/>
            <path
                fill="#545454"
                d="M9.4597578,4.1178379c-0.2749443,0-0.497426-0.2224815-0.497426-0.4974258V0.4974258 C8.9623318,0.2224814,9.1848135,0,9.4597578,0s0.497426,0.2224814,0.497426,0.4974258v3.1229863 C9.9571838,3.8953564,9.7347021,4.1178379,9.4597578,4.1178379z"
                id="path2080"/>
            <linearGradient
                id="SVGID_1_"
                x1="6.4684019"
                y1="1.8397603"
                x2="6.4684019"
                y2="12.9343662">
                <stop offset="0" style="stop-color:#FFCB69" id="stop2082"/>
                <stop offset="1" style="stop-color:#FF3E00" id="stop2084"/>
            </linearGradient>
            <path
                fill="url(#SVGID_1_)"
                d="M7.487874,13.0427809l-3.5551395,0.0037251 C3.4065056,13.0470581,2.97962,12.6206198,2.97962,12.0943899V12.094388c0-0.5281935,0.4299588-0.9554396,0.9581425-0.9520969             l3.4884918,0.0220785c0.321393,0.0020342,0.5812674-0.2612495,0.5750427-0.5825891v-0.000001             c-0.0060287-0.3112764-0.2600904-0.5604649-0.5714254-0.5604649h-1.983881c-1.3621387,0-2.4663706-1.1042318-2.4663706-2.4663706             V7.5149212c0-1.360239,1.1026917-2.4629307,2.4629307-2.4629307h3.5625162c0.5258398,0,0.952117,0.4262772,0.952117,0.9521165             v0.0070453c0,0.5258398-0.4262772,0.9521165-0.952117,0.9521165H5.4624314c-0.315649,0-0.5715332,0.2558842-0.5715332,0.5715332 v0.0037012c0,0.3156486,0.2558842,0.5715327,0.5715332,0.5715327h2.0228577c1.359982,0,2.4633183,1.1008682,2.4663644,2.4608469 v0.0000057C9.9547062,11.9341707,8.85116,13.0413513,7.487874,13.0427809z"
                id="path2087"
                style="fill:#ee8433;fill-opacity:1"/>
        </g>
    </g>
</svg>
