<?xml version="1.0" standalone="no"?>
<!DOCTYPE svg PUBLIC "-//W3C//DTD SVG 20010904//EN"
 "http://www.w3.org/TR/2001/REC-SVG-20010904/DTD/svg10.dtd">
<svg version="1.0" xmlns="http://www.w3.org/2000/svg"
 width="16.000000pt" height="16.000000pt" viewBox="0 0 16.000000 16.000000"
 preserveAspectRatio="xMidYMid meet">
<metadata>
Created by potrace 1.16, written by Peter Selinger 2001-2019
</metadata>
<g transform="translate(0.000000,16.000000) scale(0.100000,-0.100000)"
fill="#000000" stroke="none">
<path d="M68 133 c6 -2 18 -2 25 0 6 3 1 5 -13 5 -14 0 -19 -2 -12 -5z"/>
<path d="M11 108 c-1 -16 9 -18 69 -18 60 0 70 2 69 18 0 10 -3 12 -6 5 -3 -8
-26 -13 -63 -13 -37 0 -60 5 -63 13 -3 7 -6 5 -6 -5z"/>
<path d="M31 38 c-1 -27 1 -28 49 -28 48 0 50 1 49 28 -2 23 -2 24 -6 5 -4
-19 -11 -23 -43 -23 -32 0 -39 4 -43 23 -4 19 -4 18 -6 -5z"/>
</g>
</svg>
