<?xml version="1.0" standalone="no"?>
<!DOCTYPE svg PUBLIC "-//W3C//DTD SVG 20010904//EN"
 "http://www.w3.org/TR/2001/REC-SVG-20010904/DTD/svg10.dtd">
<svg version="1.0" xmlns="http://www.w3.org/2000/svg"
 width="16.000000pt" height="16.000000pt" viewBox="0 0 16.000000 16.000000"
 preserveAspectRatio="xMidYMid meet">
<metadata>
Created by potrace 1.16, written by Peter Selinger 2001-2019
</metadata>
<g transform="translate(0.000000,16.000000) scale(0.100000,-0.100000)"
fill="#000000" stroke="none">
<path d="M10 84 c0 -15 33 -44 51 -45 8 0 6 -4 -6 -9 -19 -8 -19 -9 2 -9 12
-1 25 -6 28 -11 9 -14 48 -13 63 2 15 15 15 51 0 66 -19 19 -56 14 -70 -8 -17
-26 -33 -25 -52 2 -9 12 -16 18 -16 12z m133 -11 c3 -5 -10 -8 -28 -8 -18 0
-31 3 -28 8 2 4 15 7 28 7 13 0 26 -3 28 -7z m-10 -30 c-7 -2 -21 -2 -30 0
-10 3 -4 5 12 5 17 0 24 -2 18 -5z m0 -20 c-7 -2 -21 -2 -30 0 -10 3 -4 5 12
5 17 0 24 -2 18 -5z"/>
</g>
</svg>
