<?xml version="1.0" standalone="no"?>
<!DOCTYPE svg PUBLIC "-//W3C//DTD SVG 20010904//EN"
 "http://www.w3.org/TR/2001/REC-SVG-20010904/DTD/svg10.dtd">
<svg version="1.0" xmlns="http://www.w3.org/2000/svg"
 width="18.000000pt" height="16.000000pt" viewBox="0 0 18.000000 16.000000"
 preserveAspectRatio="xMidYMid meet">
<metadata>
Created by potrace 1.16, written by Peter Selinger 2001-2019
</metadata>
<g transform="translate(0.000000,16.000000) scale(0.100000,-0.100000)"
fill="#000000" stroke="none">
<path d="M60 130 c-8 -5 -23 -11 -33 -14 -15 -5 -18 -15 -15 -53 l3 -48 75 0
75 0 3 48 c3 38 0 48 -15 53 -10 3 -26 10 -35 15 -21 11 -38 11 -58 -1z m43
-7 c-7 -2 -19 -2 -25 0 -7 3 -2 5 12 5 14 0 19 -2 13 -5z m57 -58 l0 -45 -70
0 -70 0 0 45 0 45 70 0 70 0 0 -45z"/>
<path d="M32 64 c3 -27 6 -29 54 -32 51 -3 52 -2 56 28 4 25 2 30 -11 24 -21
-10 -62 -10 -84 1 -16 7 -18 4 -15 -21z"/>
</g>
</svg>
