<?xml version="1.0" standalone="no"?>
<!DOCTYPE svg PUBLIC "-//W3C//DTD SVG 20010904//EN"
 "http://www.w3.org/TR/2001/REC-SVG-20010904/DTD/svg10.dtd">
<svg version="1.0" xmlns="http://www.w3.org/2000/svg"
 width="18.000000pt" height="16.000000pt" viewBox="0 0 18.000000 16.000000"
 preserveAspectRatio="xMidYMid meet">
<metadata>
Created by potrace 1.16, written by Peter Selinger 2001-2019
</metadata>
<g transform="translate(0.000000,16.000000) scale(0.100000,-0.100000)"
fill="#000000" stroke="none">
<path d="M42 138 c-7 -7 -12 -21 -11 -32 1 -18 2 -17 8 4 8 29 48 40 57 16 3
-9 14 -16 23 -16 23 0 41 -20 41 -45 0 -27 -18 -45 -45 -45 -27 0 -45 18 -45
45 0 12 5 26 12 33 8 8 8 12 1 12 -10 0 -23 -21 -29 -47 -4 -19 35 -53 60 -53
27 0 56 29 56 57 0 21 -29 53 -47 53 -6 0 -16 7 -23 15 -15 18 -42 19 -58 3z"/>
<path d="M94 75 c-3 -8 -2 -20 2 -27 6 -9 10 -6 15 12 l7 25 1 -24 c1 -19 4
-22 13 -13 8 8 8 15 -2 27 -16 19 -29 19 -36 0z"/>
</g>
</svg>
