<?xml version="1.0" standalone="no"?>
<!DOCTYPE svg PUBLIC "-//W3C//DTD SVG 20010904//EN"
 "http://www.w3.org/TR/2001/REC-SVG-20010904/DTD/svg10.dtd">
<svg version="1.0" xmlns="http://www.w3.org/2000/svg"
 width="16.000000pt" height="16.000000pt" viewBox="0 0 16.000000 16.000000"
 preserveAspectRatio="xMidYMid meet">

<g transform="translate(0.000000,16.000000) scale(0.100000,-0.100000)"
fill="#000000" stroke="none">
<path d="M120 112 c0 -18 -7 -21 -47 -25 l-48 -3 53 -2 c31 -1 52 2 52 9 0 5
5 7 10 4 6 -3 10 -22 10 -41 0 -19 -4 -34 -10 -34 -5 0 -10 5 -10 10 0 6 -17
9 -37 9 -35 -2 -35 -2 -8 -6 17 -3 35 -9 42 -15 35 -28 46 48 13 89 -19 24
-20 24 -20 5z"/>
<path d="M3 46 c1 -17 9 -31 17 -33 10 -3 11 -2 4 4 -7 4 -14 19 -17 33 -4 22
-5 21 -4 -4z"/>
</g>
</svg>
