<?xml version="1.0" standalone="no"?>
<!DOCTYPE svg PUBLIC "-//W3C//DTD SVG 20010904//EN"
 "http://www.w3.org/TR/2001/REC-SVG-20010904/DTD/svg10.dtd">
<svg version="1.0" xmlns="http://www.w3.org/2000/svg"
 width="18.000000pt" height="16.000000pt" viewBox="0 0 18.000000 16.000000"
 preserveAspectRatio="xMidYMid meet">

<g transform="translate(0.000000,16.000000) scale(0.100000,-0.100000)"
fill="#000000" stroke="none">
<path d="M0 120 c0 -28 4 -38 13 -34 7 2 13 20 13 39 0 22 -5 35 -13 35 -8 0
-13 -14 -13 -40z"/>
<path d="M83 120 c-1 -22 2 -40 8 -40 5 0 9 5 9 12 0 9 3 9 11 1 13 -13 -3
-34 -31 -46 -9 -3 -10 -6 -2 -6 6 -1 12 -7 12 -15 0 -9 9 -14 20 -13 11 1 20
7 20 14 0 7 4 13 9 13 5 0 7 -9 4 -20 -4 -15 0 -20 16 -20 20 0 21 5 21 80 l0
80 -48 0 -48 0 -1 -40z m56 -69 c-15 -5 -22 6 -14 19 6 9 10 9 16 -1 5 -8 4
-15 -2 -18z"/>
<path d="M0 18 c0 -14 8 -18 40 -18 50 0 46 26 -6 32 -28 3 -34 1 -34 -14z"/>
</g>
</svg>
