<?xml version="1.0" standalone="no"?>
<!DOCTYPE svg PUBLIC "-//W3C//DTD SVG 20010904//EN"
 "http://www.w3.org/TR/2001/REC-SVG-20010904/DTD/svg10.dtd">
<svg version="1.0" xmlns="http://www.w3.org/2000/svg"
 width="18.000000pt" height="16.000000pt" viewBox="0 0 18.000000 16.000000"
 preserveAspectRatio="xMidYMid meet">

<g transform="translate(0.000000,16.000000) scale(0.100000,-0.100000)"
fill="#000000" stroke="none">
<path d="M0 78 c0 -56 4 -78 13 -78 12 0 16 55 4 67 -11 10 -8 53 4 53 5 0 8
4 4 9 -3 5 0 13 6 17 7 4 9 3 6 -2 -3 -6 13 -10 38 -10 25 0 41 4 38 10 -4 5
-1 6 7 1 10 -6 9 -11 -4 -21 -13 -9 -14 -13 -4 -16 11 -4 11 -8 0 -20 -17 -22
1 -32 29 -17 13 6 19 7 15 1 -3 -6 -2 -13 4 -17 5 -3 10 -11 10 -16 0 -6 -7
-3 -16 5 -21 21 -32 13 -26 -19 3 -18 11 -25 28 -25 23 0 24 2 24 79 l0 79
-90 -1 -90 -1 0 -78z m167 -64 c-3 -3 -12 -4 -19 -1 -8 3 -5 6 6 6 11 1 17 -2
13 -5z"/>
<path d="M23 104 c-3 -8 0 -26 7 -40 14 -24 30 -32 30 -14 0 6 -5 10 -11 10
-5 0 -7 5 -3 12 4 7 3 8 -4 4 -8 -5 -12 0 -12 13 0 10 6 22 13 24 9 4 9 6 -1
6 -7 1 -15 -6 -19 -15z"/>
<path d="M90 49 c0 -5 5 -7 10 -4 6 3 10 8 10 11 0 2 -4 4 -10 4 -5 0 -10 -5
-10 -11z"/>
</g>
</svg>
