<?xml version="1.0" standalone="no"?>
<!DOCTYPE svg PUBLIC "-//W3C//DTD SVG 20010904//EN"
 "http://www.w3.org/TR/2001/REC-SVG-20010904/DTD/svg10.dtd">
<svg version="1.0" xmlns="http://www.w3.org/2000/svg"
 width="18.000000pt" height="16.000000pt" viewBox="0 0 18.000000 16.000000"
 preserveAspectRatio="xMidYMid meet">

<g transform="translate(0.000000,16.000000) scale(0.100000,-0.100000)"
fill="#000000" stroke="none">
<path d="M30 133 c-12 -15 -12 -16 0 -5 25 22 34 13 11 -12 -21 -22 -22 -25
-7 -60 9 -22 22 -36 33 -36 15 0 14 2 -5 16 -27 19 -29 64 -4 87 24 22 50 21
76 0 20 -17 20 -17 7 0 -8 10 -9 17 -3 17 6 0 14 -4 17 -10 10 -16 -14 -88
-33 -100 -16 -10 -15 -10 2 -8 26 4 55 82 40 106 -16 26 -116 29 -134 5z"/>
<path d="M70 111 c0 -6 4 -13 10 -16 6 -3 7 1 4 9 -7 18 -14 21 -14 7z"/>
<path d="M50 84 c0 -11 5 -25 12 -32 13 -13 50 -16 61 -5 10 9 -13 34 -25 27
-5 -3 -18 2 -29 12 -18 16 -19 16 -19 -2z"/>
</g>
</svg>
